# xmcd
# 
# Track frame offsets:
#	150
#	17145
#	29577
#	41952
#	57579
#	70079
#	82704
#	94101
#	107855
#	119933
#	134925
#	146956
#
# Disc length: 2146 seconds
#
# Revision: 1
# Processed by: cddbd v1.4PL0 Copyright (c) Steve Scherf et al.
# Submitted via: Audio-CD-Archiv 2.10.438
#
DISCID=bf08600c
DTITLE=Roll Truck, Roll - Best Trucker Songs CD2
DYEAR=1900
DGENRE=country
TTITLE0=Roll On - J. McRoad And The Texas Liner
TTITLE1=It's hard To Love A Man - George Bennet
TTITLE2=Freightliner Fever - Mel McBrown
TTITLE3=I'm A Truck - Red Simpson
TTITLE4=He Took Me For A Ride - La Costa Tucker
TTITLE5=I Didn't Jump The Fence - Don King
TTITLE6=On The Road Again - J. McRoad And The Texas Liner
TTITLE7=Day Time Friends - J. Mc Road And The Texas Liner
TTITLE8=Ode To 10-33 - J. McRoad And The Texas Liner
TTITLE9=Margarita Ville - Tony Blackwood
TTITLE10=My Little Rat - Steve Murphy
TTITLE11=Bringing Little Mary Home - R. Washington
EXTD=
EXTT0=
EXTT1=
EXTT2=
EXTT3=
EXTT4=
EXTT5=
EXTT6=
EXTT7=
EXTT8=
EXTT9=
EXTT10=
EXTT11=
PLAYORDER=
